<svg xmlns="http://www.w3.org/2000/svg" viewBox="0 0 96 96" width="96" height="96">
  <!-- Outer square -->
  <rect x="0" y="0" width="96" height="96" rx="20" fill="#1B5E28"/>
  <!-- Inner square -->
  <rect x="6" y="6" width="84" height="84" rx="14" fill="#2D7A3A"/>
  <!-- Corner brackets -->
  <polyline points="20,36 20,20 36,20" fill="none" stroke="white" stroke-width="6" stroke-linecap="square" stroke-linejoin="miter"/>
  <polyline points="60,20 76,20 76,36" fill="none" stroke="white" stroke-width="6" stroke-linecap="square" stroke-linejoin="miter"/>
  <polyline points="20,60 20,76 36,76" fill="none" stroke="white" stroke-width="6" stroke-linecap="square" stroke-linejoin="miter"/>
  <polyline points="60,76 76,76 76,60" fill="none" stroke="white" stroke-width="6" stroke-linecap="square" stroke-linejoin="miter"/>
  <!-- Leaf stem -->
  <line x1="48" y1="66" x2="48" y2="46" stroke="white" stroke-width="3.5" stroke-linecap="round"/>
  <!-- Left leaf -->
  <path d="M48 56 C42 52 33 52 30 44 C38 41 46 48 48 56 Z" fill="white" opacity="0.95"/>
  <!-- Right leaf -->
  <path d="M48 50 C54 43 63 40 66 34 C58 32 50 40 48 50 Z" fill="white" opacity="0.95"/>
  <!-- Accent dot -->
  <rect x="68" y="68" width="10" height="10" rx="2" fill="#4CAF72"/>
</svg>
